<?xml version="1.0" standalone="no"?>
<!DOCTYPE svg PUBLIC "-//W3C//DTD SVG 20010904//EN"
 "http://www.w3.org/TR/2001/REC-SVG-20010904/DTD/svg10.dtd">
<svg version="1.0" xmlns="http://www.w3.org/2000/svg"
 width="278.000000pt" height="122.000000pt" viewBox="0 0 278.000000 122.000000"
 preserveAspectRatio="xMidYMid meet">
<metadata>
Created by potrace 1.10, written by Peter Selinger 2001-2011
</metadata>
<g transform="translate(0.000000,122.000000) scale(0.100000,-0.100000)"
fill="#000000" stroke="none">
<path d="M2141 1014 c-17 -14 -31 -33 -31 -43 0 -22 -19 -41 -41 -41 -9 0 -28
-10 -43 -21 l-27 -21 -23 21 c-25 23 -83 28 -117 10 -15 -8 -31 -6 -65 7 -38
15 -52 15 -92 5 -72 -18 -77 -18 -80 6 -5 31 -48 63 -87 63 -42 0 -79 -30 -99
-80 -9 -22 -20 -40 -24 -40 -5 0 -17 18 -27 41 -38 82 -111 104 -166 50 l-29
-29 0 -139 c0 -132 1 -139 25 -167 l25 -29 -26 -30 c-25 -30 -25 -32 -22 -175
3 -137 4 -145 27 -163 28 -23 73 -25 106 -3 21 14 26 14 47 1 31 -21 194 -21
226 -1 19 13 26 12 55 -3 24 -13 52 -16 118 -14 l87 2 28 -42 c41 -59 85 -81
155 -77 69 5 109 32 139 94 17 34 26 44 39 39 114 -47 207 -5 236 106 19 74 7
116 -45 163 -22 20 -43 36 -48 36 -4 1 -24 3 -44 6 -25 4 -52 -1 -84 -15 -41
-18 -49 -19 -63 -7 -23 20 -176 27 -223 10 -37 -13 -38 -12 -38 10 0 28 -35
76 -56 76 -8 0 -14 3 -14 8 1 9 36 52 44 52 4 0 20 -16 37 -35 27 -31 37 -35
79 -35 40 0 53 5 76 29 l27 29 24 -29 c29 -34 84 -40 115 -12 15 14 22 14 46
3 83 -38 131 -35 190 16 32 27 41 43 52 92 19 90 -9 150 -88 184 -49 22 -114
19 -148 -7 -30 -22 -34 -18 -28 28 6 40 4 46 -26 70 -40 34 -60 34 -99 1z m83
-30 c19 -18 19 -20 6 -45 -18 -33 -90 -20 -90 17 0 19 29 44 50 44 10 0 26 -7
34 -16z m-861 -117 c20 -51 37 -98 37 -105 0 -34 19 -2 54 93 l39 105 46 0 46
0 0 -155 0 -155 -40 0 -40 0 2 92 2 93 -32 -92 -31 -93 -38 0 c-24 0 -38 5
-38 13 0 6 -14 48 -30 92 l-30 80 2 -93 3 -92 -40 0 -40 0 0 155 0 155 46 0
46 0 36 -93z m433 17 c69 -33 89 -133 38 -193 -48 -58 -143 -60 -195 -5 -32
34 -35 130 -4 164 42 48 104 61 161 34z m176 -59 c10 -33 18 -68 18 -77 0 -10
5 -18 10 -18 6 0 10 5 10 11 0 7 9 43 20 80 l21 69 39 0 c22 0 40 -3 40 -7 -1
-5 -18 -57 -39 -118 l-38 -110 -50 -3 -50 -3 -42 118 c-22 65 -41 121 -41 124
0 3 19 3 42 0 41 -6 42 -7 60 -66z m464 59 c39 -19 64 -59 64 -104 l0 -30 -85
0 c-47 0 -85 -4 -85 -8 0 -27 55 -43 77 -21 5 5 30 9 53 7 l43 -3 -27 -32
c-53 -62 -153 -63 -197 -2 -27 38 -29 117 -4 155 18 28 66 53 103 54 13 0 39
-7 58 -16z m-206 -114 l0 -120 -40 0 -40 0 0 120 0 120 40 0 40 0 0 -120z
m-571 -145 c16 -8 46 -16 67 -19 26 -2 38 -8 36 -17 -6 -24 -24 -39 -46 -39
-12 0 -38 -8 -58 -18 l-35 -18 0 40 c0 23 -3 51 -7 64 -10 26 2 28 43 7z
m-185 -20 c-14 -21 -19 -23 -37 -14 -20 11 -20 12 4 25 39 22 52 18 33 -11z
m110 -17 c21 -29 4 -58 -32 -58 -31 0 -52 16 -52 40 0 41 59 54 84 18z m286
-163 l0 -165 -41 0 c-30 0 -40 4 -36 13 4 10 -5 9 -31 -4 -42 -22 -76 -17
-114 19 -55 50 -46 165 16 203 37 23 62 24 100 4 15 -8 29 -15 30 -15 0 0 -1
22 -2 49 l-4 50 39 4 c21 2 39 4 41 5 1 1 2 -72 2 -163z m-450 127 c66 -33 76
-110 20 -154 l-29 -23 34 -57 34 -58 -44 0 c-44 0 -45 1 -77 60 -18 33 -37 60
-42 60 -4 0 -6 -27 -4 -60 l4 -60 -40 0 -41 0 0 155 0 155 75 0 c51 0 86 -6
110 -18z m623 -53 c12 -7 25 -17 29 -23 5 -7 8 -4 8 7 0 13 9 17 38 17 l37 0
-1 -142 c0 -118 -3 -148 -17 -169 -47 -71 -183 -65 -222 11 -8 16 -15 31 -15
35 0 12 78 4 90 -10 7 -8 25 -15 41 -15 31 0 49 23 49 61 0 20 -1 21 -17 7
-29 -25 -59 -30 -97 -14 -44 18 -66 60 -66 124 0 89 75 147 143 111z m312 -3
c40 -17 64 -50 72 -100 l6 -36 -87 0 c-67 0 -86 -3 -86 -14 0 -8 7 -17 16 -20
24 -9 54 -7 54 4 0 6 20 10 45 10 53 0 56 -11 15 -50 -76 -71 -196 -30 -207
73 -12 106 74 173 172 133z m-765 -116 l0 -120 -40 0 -40 0 0 120 0 120 40 0
40 0 0 -120z"/>
<path d="M1702 818 c-27 -27 -5 -108 29 -108 23 0 47 21 53 46 13 52 -47 97
-82 62z"/>
<path d="M2352 824 c-33 -23 -27 -31 23 -30 48 1 60 17 26 36 -25 13 -22 13
-49 -6z"/>
<path d="M1706 421 c-25 -28 -17 -72 16 -90 24 -14 28 -14 47 3 38 34 19 106
-28 106 -10 0 -26 -9 -35 -19z"/>
<path d="M1310 465 c0 -33 2 -35 34 -35 39 0 60 20 51 50 -5 16 -15 20 -46 20
-38 0 -39 -1 -39 -35z"/>
<path d="M1993 428 c-42 -55 0 -128 57 -98 28 15 36 55 16 85 -18 27 -57 34
-73 13z"/>
<path d="M2278 439 c-32 -18 -20 -34 27 -35 50 -1 56 7 23 30 -26 19 -27 19
-50 5z"/>
<path d="M249 967 c-56 -38 -61 -66 -57 -382 3 -313 5 -322 73 -351 49 -20
760 -21 808 0 69 28 69 31 69 399 -1 304 -2 332 -18 344 -21 15 -151 18 -173
4 -23 -15 25 -23 103 -19 l66 3 0 -330 c0 -310 -2 -332 -20 -355 l-19 -25
-411 0 -411 0 -19 25 c-18 23 -20 45 -20 318 0 204 4 300 12 315 18 34 40 46
83 47 l40 0 48 -90 48 -90 65 0 65 0 -48 93 c-35 66 -49 86 -51 70 -2 -12 8
-44 22 -72 14 -28 26 -53 26 -56 0 -3 -13 -5 -29 -5 -32 0 -49 19 -91 103 -13
27 -33 55 -44 63 -30 21 -78 17 -117 -9z"/>
<path d="M502 981 c-16 -9 15 -21 58 -21 22 0 31 -13 68 -90 l43 -90 65 0 c35
0 64 2 64 5 0 3 -15 36 -34 73 -62 121 -89 136 -41 22 14 -33 25 -62 25 -65 0
-4 -14 -5 -32 -3 -28 3 -36 11 -68 70 -20 37 -44 76 -55 88 -19 21 -69 27 -93
11z"/>
<path d="M726 981 c-7 -11 17 -21 53 -21 24 0 33 -10 73 -87 l46 -88 67 -3
c37 -2 65 1 63 5 -1 4 -23 46 -48 93 -33 62 -46 79 -48 63 -2 -12 6 -40 18
-63 25 -48 20 -73 -12 -68 -16 2 -33 23 -61 73 -20 39 -47 78 -58 88 -22 18
-84 23 -93 8z"/>
<path d="M310 597 l0 -257 360 0 360 0 0 178 0 177 -320 -3 -320 -3 -40 83
-40 82 0 -257z m373 70 c167 -3 303 -9 308 -14 5 -5 8 -69 7 -144 l-3 -134
-327 -3 -328 -2 0 172 0 171 23 -20 c21 -20 37 -21 320 -26z"/>
</g>
</svg>
